<svg id="svg" version="1.1" xmlns="http://www.w3.org/2000/svg" xmlns:xlink="http://www.w3.org/1999/xlink" width="400" height="400" viewBox="0, 0, 400,400"><g id="svgg"><path id="path0" d="M57.000 57.100 L 42.701 71.400 107.000 135.700 L 171.300 200.000 107.000 264.300 L 42.700 328.600 57.050 342.950 L 71.400 357.300 135.700 293.000 L 200.000 228.700 264.300 293.000 L 328.600 357.300 342.950 342.950 L 357.300 328.600 293.000 264.300 L 228.700 200.000 293.000 135.700 L 357.300 71.400 342.950 57.050 L 328.600 42.700 264.300 107.000 L 200.000 171.300 135.750 107.050 C 100.412 71.712,71.455 42.800,71.399 42.800 C 71.344 42.800,64.864 49.235,57.000 57.100 " stroke="none" fill="#040404" fill-rule="evenodd"></path><path id="path1" d="" stroke="none" fill="#080404" fill-rule="evenodd"></path><path id="path2" d="" stroke="none" fill="#080404" fill-rule="evenodd"></path><path id="path3" d="" stroke="none" fill="#080404" fill-rule="evenodd"></path><path id="path4" d="" stroke="none" fill="#080404" fill-rule="evenodd"></path></g></svg>