<svg id="svg" version="1.1" xmlns="http://www.w3.org/2000/svg" xmlns:xlink="http://www.w3.org/1999/xlink" width="400" height="399.1836734693877" viewBox="0, 0, 400,399.1836734693877"><g id="svgg"><path id="path0" d="M332.136 0.749 C 331.587 0.930,330.419 1.452,329.541 1.909 C 327.267 3.094,106.524 224.013,105.481 226.148 C 105.052 227.026,104.200 229.271,103.589 231.138 C 102.977 233.004,102.333 234.587,102.159 234.657 C 101.984 234.726,101.940 235.040,102.061 235.355 C 102.182 235.670,102.088 235.928,101.852 235.928 C 101.615 235.928,101.526 236.198,101.652 236.527 C 101.778 236.856,101.689 237.126,101.452 237.126 C 101.216 237.126,101.126 237.395,101.253 237.725 C 101.379 238.054,101.273 238.323,101.017 238.323 C 100.761 238.323,100.648 238.479,100.766 238.670 C 100.945 238.959,98.817 245.904,97.937 247.904 C 97.792 248.234,97.636 248.638,97.589 248.802 C 97.543 248.967,97.460 249.192,97.405 249.301 C 97.350 249.411,97.260 249.681,97.206 249.900 C 97.151 250.120,97.061 250.389,97.006 250.499 C 96.951 250.609,96.861 250.878,96.806 251.098 C 96.751 251.317,96.662 251.587,96.607 251.697 C 96.552 251.806,96.462 252.076,96.407 252.295 C 96.352 252.515,96.262 252.784,96.208 252.894 C 96.153 253.004,96.063 253.273,96.008 253.493 C 95.953 253.713,95.863 253.982,95.808 254.092 C 95.753 254.202,95.683 254.426,95.653 254.591 C 95.622 254.755,95.496 255.070,95.373 255.289 C 95.249 255.509,94.278 258.420,93.214 261.757 C 92.109 265.224,91.111 267.722,90.887 267.584 C 90.670 267.450,90.621 267.546,90.778 267.799 C 91.102 268.322,89.837 272.655,89.361 272.655 C 89.188 272.655,89.150 272.924,89.277 273.253 C 89.403 273.583,89.353 273.852,89.164 273.853 C 88.976 273.853,88.794 274.341,88.759 274.938 C 88.725 275.535,88.499 276.089,88.258 276.170 C 88.017 276.250,87.924 276.485,88.051 276.691 C 88.321 277.127,84.268 289.559,83.795 289.746 C 83.621 289.815,83.577 290.130,83.698 290.445 C 83.819 290.760,83.725 291.018,83.488 291.018 C 83.252 291.018,83.162 291.287,83.289 291.617 C 83.415 291.946,83.309 292.216,83.053 292.216 C 82.797 292.216,82.680 292.364,82.792 292.546 C 82.904 292.728,82.267 295.108,81.376 297.835 C 77.949 308.321,80.721 314.721,89.920 317.564 C 92.516 318.366,92.049 318.455,101.553 315.346 C 104.163 314.493,106.454 313.890,106.642 314.006 C 106.831 314.123,106.986 314.009,106.986 313.753 C 106.986 313.497,107.244 313.387,107.559 313.508 C 107.874 313.629,108.189 313.585,108.258 313.411 C 108.470 312.873,120.908 308.904,121.409 309.214 C 121.724 309.409,121.773 309.332,121.556 308.981 C 121.316 308.592,121.450 308.514,122.074 308.677 C 122.537 308.798,122.969 308.769,123.035 308.612 C 123.133 308.375,139.214 302.723,140.666 302.414 C 140.914 302.362,141.636 302.106,142.270 301.847 C 142.904 301.588,143.712 301.330,144.066 301.275 C 144.421 301.220,144.935 301.034,145.210 300.863 C 145.484 300.692,145.709 300.674,145.709 300.824 C 145.709 300.973,145.933 300.918,146.208 300.701 C 146.482 300.484,151.737 298.641,157.884 296.604 C 164.032 294.568,169.960 292.462,171.058 291.925 C 174.854 290.065,394.876 69.539,396.000 66.467 C 397.203 63.180,397.033 58.901,395.592 56.158 C 394.105 53.329,343.536 2.780,340.968 1.556 C 338.975 0.605,333.964 0.148,332.136 0.749 M55.689 11.941 C 55.250 12.115,53.184 12.367,51.098 12.500 C 48.865 12.643,45.335 13.259,42.515 13.999 C 39.880 14.690,37.410 15.275,37.026 15.298 C 36.642 15.322,36.327 15.449,36.327 15.581 C 36.327 15.713,35.361 16.221,34.181 16.711 C 20.791 22.261,10.811 32.925,3.442 49.557 C 2.419 51.867,0.884 58.913,0.423 63.416 C -0.167 69.184,-0.169 342.194,0.422 347.621 C 3.142 372.621,20.622 392.117,45.509 397.906 C 50.264 399.012,349.322 398.983,354.491 397.876 C 361.121 396.456,365.472 394.769,371.552 391.259 C 385.864 382.998,396.145 368.207,399.064 351.678 C 399.761 347.728,399.800 343.800,399.800 278.244 L 399.800 208.982 398.930 207.099 C 397.699 204.433,394.766 201.448,392.360 200.413 C 390.445 199.590,384.830 198.681,384.830 199.195 C 384.830 199.327,384.066 199.640,383.132 199.889 C 379.665 200.817,376.459 204.093,375.100 208.098 C 374.511 209.831,374.451 216.284,374.451 277.792 C 374.451 315.073,374.341 345.685,374.207 345.819 C 374.074 345.953,373.901 346.855,373.825 347.824 C 373.268 354.895,366.387 364.854,359.082 369.164 C 356.084 370.932,350.355 373.038,349.468 372.697 C 349.171 372.583,348.819 372.665,348.687 372.879 C 348.366 373.399,362.889 373.352,200.000 373.351 C 42.332 373.351,52.015 373.374,51.403 372.996 C 51.169 372.851,50.346 372.677,49.573 372.607 C 48.799 372.538,48.063 372.340,47.936 372.169 C 47.809 371.997,47.308 371.815,46.824 371.764 C 38.892 370.936,26.848 356.899,26.161 347.681 C 26.095 346.794,25.930 345.956,25.795 345.821 C 25.392 345.419,25.508 65.542,25.911 65.293 C 26.110 65.170,26.186 64.741,26.082 64.339 C 25.238 61.114,30.061 51.521,35.091 46.419 C 39.078 42.377,47.995 37.660,50.115 38.473 C 50.436 38.597,50.699 38.500,50.699 38.259 C 50.699 37.980,51.209 37.902,52.096 38.046 C 52.865 38.171,53.493 38.104,53.493 37.897 C 53.493 37.662,80.710 37.559,125.749 37.623 C 165.489 37.679,198.004 37.612,198.004 37.475 C 198.004 37.338,198.588 37.109,199.301 36.966 C 210.023 34.823,210.931 16.282,200.468 13.147 C 199.552 12.873,198.802 12.542,198.802 12.412 C 198.802 11.811,57.191 11.345,55.689 11.941 M351.098 46.707 L 366.265 61.878 350.997 77.145 L 335.730 92.413 320.560 77.246 C 312.216 68.905,305.389 61.900,305.389 61.681 C 305.389 61.156,335.005 31.537,335.529 31.537 C 335.751 31.537,342.757 38.364,351.098 46.707 M289.184 81.798 C 290.419 83.052,291.001 83.935,290.804 84.255 C 290.608 84.572,290.658 84.653,290.941 84.479 C 291.375 84.210,317.365 109.749,317.365 110.445 C 317.365 110.629,281.572 146.543,237.824 190.253 L 158.283 269.728 135.659 277.276 C 123.215 281.427,112.927 284.716,112.796 284.585 C 112.664 284.454,115.994 274.126,120.195 261.635 L 127.833 238.922 207.329 159.381 C 251.052 115.634,286.922 79.840,287.041 79.840 C 287.159 79.840,288.123 80.721,289.184 81.798 " stroke="none" fill="#040404" fill-rule="evenodd"></path><path id="path1" d="M329.242 1.426 C 327.694 2.266,327.869 2.555,329.441 1.756 C 330.946 0.991,331.212 0.792,330.705 0.814 C 330.504 0.823,329.845 1.098,329.242 1.426 M216.405 113.182 C 155.718 173.886,106.227 223.553,106.425 223.553 C 106.624 223.553,156.457 173.882,217.166 113.174 C 277.874 52.465,327.365 2.798,327.145 2.802 C 326.926 2.807,277.093 52.478,216.405 113.182 M352.096 10.976 C 361.391 20.548,394.810 53.903,394.810 53.609 C 394.810 53.475,383.718 42.302,370.160 28.780 C 356.602 15.258,348.473 7.246,352.096 10.976 M50.067 11.923 C 50.265 12.244,52.295 12.069,52.295 11.730 C 52.295 11.646,51.746 11.577,51.074 11.577 C 50.403 11.577,49.949 11.732,50.067 11.923 M201.597 13.174 C 201.597 13.393,201.789 13.573,202.025 13.573 C 202.260 13.573,202.722 13.842,203.051 14.172 C 203.380 14.501,203.862 14.764,204.120 14.756 C 204.379 14.748,204.052 14.300,203.393 13.760 C 202.107 12.705,201.597 12.539,201.597 13.174 M34.788 15.525 C 34.410 15.764,34.380 15.951,34.688 16.141 C 34.931 16.292,35.130 16.214,35.130 15.968 C 35.130 15.723,35.309 15.633,35.529 15.768 C 35.749 15.904,35.928 15.825,35.928 15.592 C 35.928 15.084,35.521 15.060,34.788 15.525 M31.776 16.824 C 30.920 17.276,30.022 17.813,29.780 18.018 C 29.539 18.223,28.982 18.659,28.543 18.987 C 28.104 19.315,29.137 18.910,30.838 18.087 C 32.540 17.264,33.932 16.451,33.932 16.280 C 33.932 15.810,33.487 15.922,31.776 16.824 M205.602 16.206 C 205.595 16.447,205.948 17.059,206.387 17.565 C 206.826 18.071,207.186 18.298,207.186 18.069 C 207.186 17.501,205.619 15.658,205.602 16.206 M26.048 20.405 C 24.687 21.277,24.247 21.862,25.449 21.201 C 26.365 20.698,27.800 19.588,27.545 19.580 C 27.435 19.577,26.761 19.948,26.048 20.405 M22.954 22.590 L 21.756 23.619 23.054 22.760 C 23.767 22.288,24.351 21.824,24.351 21.729 C 24.351 21.430,24.182 21.535,22.954 22.590 M16.090 28.066 C 14.821 29.285,13.906 30.406,14.057 30.558 C 14.208 30.709,15.334 29.798,16.558 28.534 C 19.449 25.550,19.086 25.187,16.090 28.066 M12.010 32.692 C 10.697 34.349,10.542 34.731,11.178 34.731 C 11.397 34.731,11.580 34.506,11.584 34.232 C 11.588 33.957,12.037 33.309,12.582 32.792 C 13.462 31.958,13.871 31.138,13.407 31.138 C 13.315 31.138,12.687 31.837,12.010 32.692 M337.725 34.109 C 340.930 37.533,363.101 59.707,364.689 61.078 C 368.139 64.055,344.082 39.698,337.525 33.575 L 335.130 31.338 337.725 34.109 M204.443 34.146 C 203.703 34.896,202.406 35.828,201.559 36.218 C 200.713 36.607,200.016 37.061,200.010 37.226 C 199.996 37.651,200.718 37.596,201.644 37.101 C 202.727 36.521,206.685 32.746,206.188 32.767 C 205.968 32.776,205.183 33.397,204.443 34.146 M196.208 37.924 C 196.072 38.144,196.331 38.323,196.783 38.323 C 197.235 38.323,197.605 38.144,197.605 37.924 C 197.605 37.705,197.346 37.525,197.030 37.525 C 196.713 37.525,196.343 37.705,196.208 37.924 M5.768 42.754 C 5.201 43.874,4.804 44.857,4.885 44.939 C 4.967 45.021,5.516 44.104,6.106 42.903 C 6.695 41.702,7.092 40.719,6.988 40.719 C 6.885 40.719,6.336 41.635,5.768 42.754 M41.187 42.216 C 38.248 43.996,35.793 45.906,36.077 46.190 C 36.189 46.302,37.145 45.677,38.200 44.800 C 39.256 43.923,41.108 42.648,42.315 41.966 C 43.523 41.284,44.319 40.724,44.084 40.722 C 43.850 40.720,42.546 41.392,41.187 42.216 M29.207 54.907 C 28.538 56.375,28.665 56.688,29.389 55.354 C 29.726 54.731,29.928 54.146,29.837 54.055 C 29.745 53.964,29.462 54.347,29.207 54.907 M308.165 64.418 C 310.882 67.276,335.039 91.352,335.655 91.816 C 336.839 92.709,332.488 88.214,321.956 77.660 C 309.260 64.938,302.336 58.289,308.165 64.418 M26.145 205.589 C 26.145 281.886,26.191 313.099,26.247 274.950 C 26.304 236.801,26.304 174.376,26.247 136.228 C 26.191 98.079,26.145 129.291,26.145 205.589 M284.131 180.340 C 223.807 240.664,174.451 290.160,174.451 290.331 C 174.451 290.607,390.813 74.384,393.183 71.739 C 393.716 71.145,394.075 70.659,393.981 70.659 C 393.888 70.659,344.456 120.015,284.131 180.340 M154.707 212.359 C 139.787 227.280,127.687 239.597,127.819 239.728 C 128.017 239.927,182.435 185.753,182.435 185.357 C 182.435 184.733,178.449 188.615,154.707 212.359 M385.230 198.802 C 385.230 199.022,386.128 199.202,387.226 199.202 C 388.323 199.202,389.222 199.022,389.222 198.802 C 389.222 198.583,388.323 198.403,387.226 198.403 C 386.128 198.403,385.230 198.583,385.230 198.802 M390.230 199.185 C 390.088 199.414,390.260 199.601,390.611 199.601 C 390.962 199.601,392.006 199.968,392.930 200.417 C 393.854 200.866,394.251 200.962,393.812 200.630 C 393.373 200.299,392.821 199.863,392.584 199.663 C 391.832 199.026,390.495 198.755,390.230 199.185 M379.695 200.821 C 378.957 201.272,378.442 201.729,378.551 201.838 C 378.660 201.946,379.424 201.577,380.248 201.018 C 382.036 199.804,381.611 199.654,379.695 200.821 M396.069 202.600 C 396.871 203.476,397.903 204.820,398.363 205.589 C 398.822 206.357,399.199 206.788,399.200 206.547 C 399.202 205.922,397.125 203.175,395.763 202.001 C 394.946 201.297,395.035 201.471,396.069 202.600 M375.050 205.988 C 374.688 206.688,374.477 207.344,374.580 207.447 C 374.683 207.550,375.056 207.055,375.409 206.347 C 375.762 205.639,375.974 204.983,375.879 204.888 C 375.785 204.794,375.412 205.289,375.050 205.988 M373.848 277.046 C 373.848 314.042,373.895 329.177,373.952 310.679 C 374.009 292.181,374.009 261.911,373.952 243.413 C 373.895 224.915,373.848 240.050,373.848 277.046 M105.013 225.204 C 104.131 226.651,104.005 227.146,104.517 227.146 C 104.919 227.146,106.296 224.327,106.027 224.057 C 105.919 223.950,105.463 224.466,105.013 225.204 M143.313 274.052 C 142.545 274.348,142.186 274.590,142.515 274.590 C 142.844 274.590,143.743 274.348,144.511 274.052 C 145.279 273.756,145.639 273.514,145.309 273.514 C 144.980 273.514,144.082 273.756,143.313 274.052 M124.950 280.040 C 124.182 280.336,123.822 280.578,124.152 280.578 C 124.481 280.578,125.379 280.336,126.148 280.040 C 126.916 279.744,127.275 279.502,126.946 279.502 C 126.617 279.502,125.719 279.744,124.950 280.040 M172.067 291.659 C 171.305 292.185,170.563 292.615,170.419 292.615 C 170.275 292.615,169.462 292.918,168.612 293.289 C 167.761 293.660,166.931 293.997,166.766 294.038 C 166.602 294.078,166.377 294.157,166.267 294.212 C 166.158 294.266,165.888 294.356,165.669 294.411 C 165.449 294.466,165.180 294.556,165.070 294.611 C 164.960 294.666,164.706 294.733,164.504 294.760 C 163.973 294.833,163.467 295.409,163.935 295.409 C 165.446 295.409,172.935 292.256,173.466 291.396 C 173.957 290.602,173.465 290.695,172.067 291.659 M148.303 300.200 C 147.206 300.605,146.577 300.936,146.906 300.936 C 147.236 300.936,148.403 300.605,149.501 300.200 C 150.599 299.795,151.228 299.463,150.898 299.463 C 150.569 299.463,149.401 299.795,148.303 300.200 M131.737 305.589 C 130.968 305.885,130.609 306.132,130.938 306.139 C 131.267 306.146,132.076 305.905,132.735 305.603 C 134.276 304.897,133.559 304.887,131.737 305.589 M128.144 306.786 C 127.375 307.082,127.016 307.330,127.345 307.337 C 127.675 307.344,128.483 307.102,129.142 306.801 C 130.683 306.095,129.966 306.085,128.144 306.786 M79.662 309.182 C 79.898 310.397,81.685 313.772,82.092 313.772 C 82.214 313.772,81.914 313.099,81.426 312.275 C 80.937 311.452,80.288 310.150,79.983 309.381 C 79.472 308.091,79.447 308.076,79.662 309.182 M113.569 311.783 C 113.431 312.006,113.163 312.093,112.974 311.976 C 112.785 311.859,112.517 311.946,112.379 312.169 C 112.034 312.728,112.937 312.647,114.371 311.990 C 115.412 311.514,115.455 311.438,114.694 311.410 C 114.213 311.392,113.707 311.560,113.569 311.783 M108.729 313.460 C 108.461 313.893,109.453 313.841,110.175 313.385 C 110.637 313.092,110.565 313.025,109.845 313.079 C 109.337 313.117,108.835 313.289,108.729 313.460 M83.205 314.925 C 83.519 315.432,86.428 317.365,86.878 317.365 C 87.128 317.365,84.717 315.540,83.471 314.787 C 83.083 314.552,83.001 314.595,83.205 314.925 M370.427 355.784 C 368.164 360.679,362.421 366.695,357.784 369.028 C 357.071 369.387,356.487 369.777,356.487 369.894 C 356.487 370.781,361.996 366.959,364.870 364.079 C 367.960 360.983,372.206 354.508,371.566 353.868 C 371.471 353.773,370.958 354.635,370.427 355.784 M29.990 357.276 C 32.282 362.055,37.385 367.080,42.315 369.411 C 43.779 370.102,43.685 370.031,39.791 367.483 C 36.718 365.472,33.730 362.484,31.719 359.410 C 30.850 358.083,29.913 356.658,29.636 356.243 C 29.360 355.828,29.519 356.293,29.990 357.276 M4.020 364.271 C 4.020 364.491,4.277 365.120,4.591 365.669 C 4.905 366.218,5.161 366.487,5.161 366.267 C 5.161 366.048,4.905 365.419,4.591 364.870 C 4.277 364.321,4.020 364.052,4.020 364.271 M395.274 365.087 C 394.606 366.555,394.733 366.868,395.456 365.534 C 395.794 364.910,395.996 364.326,395.904 364.234 C 395.813 364.143,395.530 364.527,395.274 365.087 M5.190 367.019 C 5.190 367.448,6.377 369.661,6.607 369.661 C 6.717 369.661,6.510 369.077,6.147 368.363 C 5.406 366.906,5.190 366.602,5.190 367.019 M393.890 368.268 C 393.525 369.034,393.309 369.661,393.409 369.661 C 393.683 369.661,394.894 367.216,394.712 367.034 C 394.625 366.947,394.256 367.503,393.890 368.268 M7.385 371.257 C 7.726 371.916,8.094 372.455,8.204 372.455 C 8.314 372.455,8.125 371.916,7.784 371.257 C 7.444 370.599,7.075 370.060,6.966 370.060 C 6.856 370.060,7.045 370.599,7.385 371.257 M392.216 371.257 C 391.875 371.916,391.686 372.455,391.796 372.455 C 391.906 372.455,392.274 371.916,392.615 371.257 C 392.955 370.599,393.144 370.060,393.034 370.060 C 392.925 370.060,392.556 370.599,392.216 371.257 M13.172 379.440 C 13.687 379.988,14.196 380.348,14.304 380.240 C 14.569 379.975,13.153 378.443,12.643 378.443 C 12.419 378.443,12.657 378.892,13.172 379.440 M386.538 378.942 C 385.581 380.180,385.593 380.554,386.562 379.671 C 387.147 379.139,387.625 378.645,387.625 378.573 C 387.625 378.243,386.884 378.495,386.538 378.942 M15.569 382.386 C 15.569 382.897,16.743 383.790,17.033 383.500 C 17.323 383.210,16.430 382.036,15.919 382.036 C 15.727 382.036,15.569 382.194,15.569 382.386 M383.226 382.644 C 382.948 382.979,382.832 383.364,382.967 383.500 C 383.257 383.790,384.431 382.897,384.431 382.386 C 384.431 381.836,383.780 381.976,383.226 382.644 M19.529 385.773 C 20.061 386.350,20.573 386.746,20.667 386.652 C 20.953 386.365,20.365 385.659,19.439 385.178 C 18.604 384.743,18.608 384.771,19.529 385.773 M379.984 385.594 C 379.466 386.015,379.146 386.463,379.273 386.591 C 379.400 386.719,379.926 386.375,380.441 385.827 C 381.552 384.644,381.309 384.520,379.984 385.594 M21.557 387.384 C 21.557 387.486,22.141 387.980,22.854 388.480 C 23.775 389.126,23.987 389.185,23.586 388.685 C 23.014 387.974,21.557 387.039,21.557 387.384 M26.148 390.615 C 27.040 391.356,29.569 392.723,28.942 392.125 C 28.723 391.916,27.824 391.341,26.946 390.848 C 26.068 390.355,25.709 390.250,26.148 390.615 M371.956 391.446 C 370.464 392.256,370.555 392.593,372.056 391.816 C 372.715 391.476,373.253 391.112,373.253 391.008 C 373.253 390.751,373.211 390.765,371.956 391.446 M368.862 393.214 C 368.094 393.634,367.609 393.986,367.784 393.995 C 368.207 394.017,370.459 392.847,370.459 392.605 C 370.459 392.343,370.436 392.352,368.862 393.214 M33.533 394.611 C 34.082 394.925,34.711 395.181,34.930 395.181 C 35.150 395.181,34.880 394.925,34.331 394.611 C 33.782 394.297,33.154 394.040,32.934 394.040 C 32.715 394.040,32.984 394.297,33.533 394.611 M365.669 394.611 C 365.120 394.925,364.850 395.181,365.070 395.181 C 365.289 395.181,365.918 394.925,366.467 394.611 C 367.016 394.297,367.285 394.040,367.066 394.040 C 366.846 394.040,366.218 394.297,365.669 394.611 " stroke="none" fill="#cdcdcd" fill-rule="evenodd"></path><path id="path2" d="M276.846 53.593 L 226.148 104.391 276.946 53.693 C 304.885 25.809,327.745 2.950,327.745 2.895 C 327.745 2.616,323.979 6.366,276.846 53.593 M351.297 10.978 C 354.915 14.601,357.965 17.565,358.075 17.565 C 358.185 17.565,355.314 14.601,351.697 10.978 C 348.079 7.355,345.029 4.391,344.919 4.391 C 344.809 4.391,347.680 7.355,351.297 10.978 M52.894 11.976 C 52.247 12.254,52.361 12.319,53.493 12.319 C 54.261 12.319,55.250 12.165,55.689 11.976 C 56.336 11.698,56.222 11.633,55.090 11.633 C 54.321 11.633,53.333 11.787,52.894 11.976 M195.808 11.976 C 196.917 12.453,197.700 12.453,197.405 11.976 C 197.269 11.756,196.675 11.589,196.084 11.605 C 195.125 11.630,195.095 11.670,195.808 11.976 M208.125 24.750 C 208.125 26.929,208.179 27.137,208.465 26.048 C 208.653 25.333,208.653 24.168,208.465 23.453 C 208.179 22.364,208.125 22.572,208.125 24.750 M370.060 29.741 C 373.897 33.583,377.127 36.727,377.237 36.727 C 377.347 36.727,374.297 33.583,370.459 29.741 C 366.621 25.898,363.392 22.754,363.282 22.754 C 363.172 22.754,366.222 25.898,370.060 29.741 M320.158 46.599 C 311.925 54.884,306.009 60.898,307.010 59.964 C 308.012 59.030,308.970 58.404,309.139 58.574 C 309.309 58.743,309.388 58.621,309.315 58.302 C 309.242 57.982,309.451 57.705,309.780 57.685 C 310.110 57.665,310.342 57.456,310.297 57.220 C 310.215 56.790,312.094 54.803,312.407 54.990 C 312.500 55.045,312.553 54.978,312.527 54.842 C 312.429 54.341,327.906 39.174,328.279 39.405 C 328.492 39.537,328.554 39.463,328.417 39.241 C 328.136 38.786,329.852 37.007,330.269 37.322 C 330.418 37.433,330.444 37.400,330.328 37.247 C 330.212 37.094,331.330 35.747,332.812 34.253 C 334.295 32.759,335.422 31.537,335.317 31.537 C 335.212 31.537,328.390 38.315,320.158 46.599 M387.226 46.906 C 391.283 50.968,394.693 54.291,394.802 54.291 C 394.912 54.291,391.682 50.968,387.625 46.906 C 383.567 42.844,380.158 39.521,380.048 39.521 C 379.938 39.521,383.168 42.844,387.226 46.906 M28.823 54.899 C 28.345 55.882,28.038 56.687,28.141 56.687 C 28.411 56.687,30.024 53.444,29.844 53.263 C 29.760 53.180,29.301 53.916,28.823 54.899 M26.987 59.538 C 26.099 62.671,25.802 64.103,26.093 63.837 C 26.408 63.551,27.915 57.741,27.727 57.542 C 27.653 57.463,27.320 58.362,26.987 59.538 M396.907 61.677 C 396.911 62.555,396.993 62.867,397.089 62.371 C 397.184 61.874,397.181 61.155,397.081 60.774 C 396.981 60.392,396.903 60.798,396.907 61.677 M355.520 72.133 C 349.829 77.884,344.987 82.554,344.760 82.512 C 344.533 82.470,344.331 82.705,344.311 83.034 C 344.291 83.363,344.045 83.583,343.765 83.523 C 343.484 83.463,343.349 83.566,343.464 83.753 C 343.700 84.134,338.948 88.995,338.323 89.011 C 338.104 89.017,337.916 89.247,337.906 89.521 C 337.896 89.795,337.658 89.971,337.377 89.910 C 337.097 89.850,336.972 89.970,337.100 90.178 C 337.228 90.385,336.858 90.928,336.277 91.385 C 335.697 91.842,335.382 92.216,335.577 92.216 C 336.004 92.216,366.311 61.958,366.050 61.792 C 365.950 61.729,361.212 66.382,355.520 72.133 M25.815 65.336 C 25.669 65.482,25.567 66.156,25.590 66.833 L 25.631 68.064 25.958 66.669 C 26.300 65.216,26.264 64.887,25.815 65.336 M207.185 159.580 C 163.383 203.438,139.850 227.061,154.890 212.077 C 169.930 197.092,182.415 184.796,182.635 184.750 C 183.206 184.633,186.264 181.637,185.813 181.637 C 185.607 181.637,188.657 178.413,192.593 174.473 C 196.528 170.533,199.864 167.381,200.006 167.469 C 200.147 167.556,201.231 166.648,202.413 165.451 C 203.596 164.253,204.392 163.273,204.182 163.273 C 203.972 163.273,207.021 160.050,210.956 156.110 C 214.892 152.170,218.242 149.027,218.401 149.125 C 218.735 149.331,220.758 147.038,220.758 146.453 C 220.758 146.237,220.918 146.159,221.112 146.279 C 221.307 146.400,221.688 146.231,221.960 145.904 C 222.231 145.577,222.298 145.309,222.109 145.309 C 221.920 145.309,224.985 142.086,228.920 138.146 C 232.856 134.206,236.195 131.056,236.340 131.146 C 236.730 131.386,238.781 129.133,238.462 128.815 C 238.313 128.665,238.462 128.543,238.794 128.543 C 239.126 128.543,239.722 128.184,240.120 127.745 C 240.517 127.305,240.682 126.946,240.485 126.946 C 240.289 126.946,243.348 123.722,247.283 119.782 C 251.219 115.842,254.561 112.695,254.711 112.787 C 254.861 112.880,255.304 112.600,255.697 112.166 C 256.090 111.732,256.272 111.377,256.101 111.377 C 255.930 111.377,256.012 111.110,256.284 110.783 C 256.555 110.456,256.912 110.272,257.078 110.374 C 257.243 110.476,257.700 110.205,258.092 109.771 C 258.485 109.337,258.646 108.982,258.449 108.982 C 258.253 108.982,261.312 105.758,265.248 101.818 C 269.183 97.878,272.525 94.730,272.675 94.823 C 272.958 94.998,274.451 93.525,274.451 93.072 C 274.451 92.930,274.586 92.859,274.750 92.914 C 274.915 92.969,275.005 92.879,274.950 92.715 C 274.895 92.550,274.966 92.415,275.108 92.415 C 275.562 92.415,277.033 90.921,276.858 90.638 C 276.765 90.488,279.013 88.047,281.853 85.213 L 287.017 80.061 289.117 82.046 L 291.218 84.032 289.237 81.936 C 288.147 80.783,287.159 79.840,287.041 79.840 C 286.922 79.840,250.987 115.723,207.185 159.580 M302.714 95.727 C 306.177 99.196,308.870 102.189,308.697 102.378 C 308.524 102.569,308.626 102.582,308.927 102.408 C 309.399 102.135,297.348 89.421,296.616 89.421 C 296.506 89.421,299.250 92.259,302.714 95.727 M219.556 110.878 L 213.373 117.166 219.661 110.983 C 223.119 107.582,225.948 104.753,225.948 104.695 C 225.948 104.410,225.300 105.037,219.556 110.878 M315.868 108.804 C 316.472 109.475,316.966 110.197,316.966 110.408 C 316.966 110.978,308.789 119.024,308.463 118.776 C 308.309 118.659,308.281 118.690,308.400 118.845 C 308.518 119.001,275.240 152.549,234.448 193.396 L 160.279 267.665 238.822 189.222 C 282.021 146.078,317.365 110.588,317.365 110.355 C 317.365 110.121,316.781 109.402,316.068 108.757 L 314.770 107.585 315.868 108.804 M202.788 127.645 L 197.804 132.735 202.894 127.751 C 207.622 123.121,208.165 122.555,207.878 122.555 C 207.820 122.555,205.530 124.845,202.788 127.645 M183.229 147.206 L 177.046 153.493 183.333 147.310 C 189.174 141.566,189.801 140.918,189.516 140.918 C 189.459 140.918,186.629 143.748,183.229 147.206 M165.262 165.170 L 161.477 169.062 165.369 165.277 C 168.984 161.762,169.443 161.277,169.154 161.277 C 169.095 161.277,167.343 163.029,165.262 165.170 M146.900 183.533 L 141.916 188.623 147.006 183.639 C 149.805 180.898,152.096 178.607,152.096 178.549 C 152.096 178.262,151.530 178.805,146.900 183.533 M128.934 201.497 L 125.150 205.389 129.042 201.605 C 132.657 198.090,133.116 197.605,132.826 197.605 C 132.767 197.605,131.016 199.356,128.934 201.497 M111.370 219.062 L 107.186 223.353 111.477 219.169 C 113.837 216.867,115.768 214.936,115.768 214.877 C 115.768 214.589,115.257 215.076,111.370 219.062 M100.388 239.621 C 99.291 242.571,97.482 248.379,97.752 248.085 C 98.168 247.631,101.021 239.122,100.757 239.122 C 100.656 239.122,100.490 239.346,100.388 239.621 M119.258 264.355 C 118.451 266.797,117.942 268.631,118.127 268.430 C 118.560 267.959,121.092 260.280,120.883 260.071 C 120.796 259.985,120.065 261.912,119.258 264.355 M82.505 293.313 C 82.052 294.079,79.427 302.714,79.596 302.883 C 79.702 302.988,79.975 302.383,80.203 301.537 C 80.432 300.692,81.151 298.428,81.801 296.507 C 82.840 293.438,83.082 292.337,82.505 293.313 M79.555 305.190 C 79.558 306.287,79.636 306.689,79.728 306.082 C 79.819 305.476,79.817 304.577,79.722 304.086 C 79.627 303.595,79.552 304.092,79.555 305.190 M79.746 308.401 C 79.850 308.947,80.068 309.475,80.230 309.575 C 80.391 309.675,80.438 309.310,80.334 308.764 C 80.230 308.219,80.012 307.691,79.850 307.591 C 79.689 307.491,79.642 307.856,79.746 308.401 M98.403 316.377 C 97.525 316.677,96.025 317.124,95.069 317.370 C 94.114 317.616,93.408 317.892,93.500 317.985 C 93.745 318.229,99.532 316.583,99.980 316.142 C 100.441 315.688,100.403 315.694,98.403 316.377 M87.026 316.815 C 87.026 316.909,87.430 317.135,87.924 317.317 C 89.303 317.824,91.244 318.256,90.985 317.998 C 90.676 317.689,87.026 316.599,87.026 316.815 M25.549 344.421 C 25.549 345.103,25.726 345.771,25.942 345.904 C 26.188 346.056,26.241 345.653,26.084 344.830 C 25.748 343.065,25.549 342.913,25.549 344.421 M374.106 344.179 C 374.076 344.545,373.936 345.174,373.794 345.576 C 373.594 346.141,373.647 346.204,374.027 345.854 C 374.297 345.605,374.438 344.977,374.340 344.457 C 374.241 343.938,374.136 343.813,374.106 344.179 M27.194 352.105 C 27.798 353.892,28.139 354.239,27.772 352.695 C 27.616 352.036,27.317 351.321,27.107 351.107 C 26.897 350.892,26.936 351.341,27.194 352.105 M372.432 351.957 C 372.211 352.539,372.088 353.191,372.160 353.405 C 372.231 353.620,372.490 353.143,372.734 352.347 C 373.248 350.673,373.028 350.389,372.432 351.957 M369.414 358.583 C 368.040 360.914,367.950 361.113,368.650 360.279 C 369.461 359.313,370.160 358.084,369.898 358.084 C 369.793 358.084,369.575 358.308,369.414 358.583 M4.425 364.271 C 4.425 364.491,4.769 365.299,5.190 366.068 C 5.610 366.836,5.955 367.285,5.955 367.066 C 5.955 366.846,5.610 366.038,5.190 365.269 C 4.769 364.501,4.425 364.052,4.425 364.271 M6.986 369.661 C 7.327 370.319,7.695 370.858,7.805 370.858 C 7.915 370.858,7.726 370.319,7.385 369.661 C 7.045 369.002,6.676 368.463,6.566 368.463 C 6.457 368.463,6.645 369.002,6.986 369.661 M54.691 373.253 C 55.512 373.784,344.488 373.784,345.309 373.253 C 345.697 373.003,294.345 372.867,200.000 372.867 C 105.655 372.867,54.303 373.003,54.691 373.253 M15.569 381.362 C 15.569 381.431,16.153 382.015,16.866 382.660 L 18.164 383.832 16.991 382.535 C 15.898 381.326,15.569 381.054,15.569 381.362 M382.798 382.680 C 382.049 383.456,381.707 384.033,382.036 383.962 C 382.365 383.890,382.765 383.514,382.925 383.124 C 383.084 382.735,383.609 382.271,384.091 382.092 C 384.573 381.914,384.785 381.656,384.563 381.518 C 384.340 381.381,383.546 381.904,382.798 382.680 M28.343 391.397 C 28.343 391.506,28.882 391.875,29.541 392.216 C 30.200 392.556,30.739 392.745,30.739 392.635 C 30.739 392.525,30.200 392.157,29.541 391.816 C 28.882 391.476,28.343 391.287,28.343 391.397 M127.844 399.102 C 167.530 399.158,232.470 399.158,272.156 399.102 C 311.841 399.046,279.371 399.000,200.000 399.000 C 120.629 399.000,88.159 399.046,127.844 399.102 " stroke="none" fill="#5f5f5f" fill-rule="evenodd"></path><path id="path3" d="M358.904 68.089 C 357.059 69.941,355.720 71.457,355.928 71.457 C 356.418 71.457,362.691 65.153,362.446 64.907 C 362.343 64.805,360.749 66.236,358.904 68.089 M25.746 205.589 C 25.746 281.447,25.792 312.480,25.848 274.551 C 25.904 236.622,25.904 174.556,25.848 136.627 C 25.792 98.698,25.746 129.731,25.746 205.589 M341.299 85.750 C 337.489 89.649,337.461 90.163,341.263 86.437 C 343.049 84.685,344.511 83.203,344.511 83.143 C 344.511 82.671,343.535 83.463,341.299 85.750 M265.667 101.486 C 255.788 111.415,249.681 117.625,252.096 115.285 C 259.554 108.060,284.065 83.433,283.797 83.433 C 283.705 83.433,275.546 91.557,265.667 101.486 M303.194 96.607 C 305.161 98.583,306.860 100.200,306.969 100.200 C 307.079 100.200,305.560 98.583,303.593 96.607 C 301.626 94.631,299.927 93.014,299.817 93.014 C 299.707 93.014,301.227 94.631,303.194 96.607 M210.568 119.860 L 207.784 122.754 210.679 119.971 C 212.270 118.440,213.573 117.137,213.573 117.077 C 213.573 116.784,213.154 117.172,210.568 119.860 M243.107 124.052 L 238.922 128.343 243.214 124.159 C 247.200 120.272,247.686 119.760,247.398 119.760 C 247.339 119.760,245.408 121.692,243.107 124.052 M228.830 138.245 C 224.171 142.922,220.359 146.904,220.359 147.094 C 220.359 147.283,220.404 147.361,220.459 147.266 C 220.514 147.172,224.416 143.190,229.129 138.417 C 233.843 133.645,237.610 129.741,237.500 129.741 C 237.391 129.741,233.489 133.567,228.830 138.245 M192.415 137.924 C 190.779 139.571,189.531 140.918,189.641 140.918 C 189.751 140.918,191.179 139.571,192.814 137.924 C 194.450 136.277,195.699 134.930,195.589 134.930 C 195.479 134.930,194.051 136.277,192.415 137.924 M210.978 156.088 C 206.371 160.699,202.692 164.471,202.802 164.471 C 202.911 164.471,206.770 160.699,211.377 156.088 C 215.984 151.477,219.664 147.705,219.554 147.705 C 219.444 147.705,215.585 151.477,210.978 156.088 M174.241 156.188 L 171.457 159.082 174.351 156.298 C 177.039 153.713,177.428 153.293,177.135 153.293 C 177.074 153.293,175.772 154.596,174.241 156.188 M192.811 174.351 L 184.631 182.635 192.914 174.455 C 197.470 169.956,201.198 166.228,201.198 166.171 C 201.198 165.888,200.411 166.655,192.811 174.351 M156.081 174.351 L 151.896 178.643 156.188 174.458 C 160.174 170.572,160.660 170.060,160.372 170.060 C 160.313 170.060,158.382 171.991,156.081 174.351 M137.917 192.515 L 133.932 196.607 138.024 192.622 C 141.824 188.921,142.297 188.423,142.008 188.423 C 141.949 188.423,140.108 190.264,137.917 192.515 M119.753 210.679 L 115.569 214.970 119.860 210.786 C 123.846 206.899,124.333 206.387,124.045 206.387 C 123.986 206.387,122.055 208.318,119.753 210.679 " stroke="none" fill="#747474" fill-rule="evenodd"></path><path id="path4" d="M334.835 0.282 C 335.332 0.378,336.050 0.374,336.432 0.274 C 336.813 0.174,336.407 0.096,335.529 0.101 C 334.651 0.105,334.338 0.187,334.835 0.282 M345.309 4.230 C 345.309 4.434,348.049 7.293,351.397 10.584 L 357.485 16.567 351.497 10.393 C 348.204 6.998,345.464 4.139,345.409 4.039 C 345.354 3.940,345.309 4.026,345.309 4.230 M204.593 15.571 C 204.992 16.012,205.404 16.286,205.510 16.180 C 205.778 15.912,204.783 14.770,204.280 14.770 C 204.054 14.770,204.194 15.131,204.593 15.571 M369.661 28.942 C 372.399 31.687,374.729 33.932,374.838 33.932 C 374.948 33.932,372.798 31.687,370.060 28.942 C 367.322 26.198,364.992 23.952,364.882 23.952 C 364.772 23.952,366.923 26.198,369.661 28.942 M337.525 33.533 C 338.606 34.631,339.581 35.529,339.691 35.529 C 339.800 35.529,339.005 34.631,337.924 33.533 C 336.843 32.435,335.868 31.537,335.759 31.537 C 335.649 31.537,336.444 32.435,337.525 33.533 M332.325 34.751 C 330.794 36.299,329.810 37.442,330.140 37.292 C 330.737 37.018,335.620 31.936,335.285 31.936 C 335.188 31.936,333.856 33.203,332.325 34.751 M55.289 37.924 C 54.840 38.117,85.401 38.279,125.226 38.295 C 171.982 38.314,196.045 38.188,196.208 37.924 C 196.517 37.423,56.456 37.423,55.289 37.924 M320.557 46.607 C 315.815 51.382,311.993 55.272,312.062 55.250 C 312.384 55.148,329.649 37.924,329.429 37.924 C 329.291 37.924,325.299 41.831,320.557 46.607 M43.313 40.697 C 42.435 41.112,41.829 41.467,41.967 41.485 C 42.355 41.535,45.110 40.333,45.110 40.114 C 45.110 39.847,45.108 39.847,43.313 40.697 M351.297 47.305 C 354.915 50.928,357.965 53.892,358.075 53.892 C 358.185 53.892,355.314 50.928,351.697 47.305 C 348.079 43.683,345.029 40.719,344.919 40.719 C 344.809 40.719,347.680 43.683,351.297 47.305 M387.824 47.106 C 390.012 49.301,391.891 51.098,392.001 51.098 C 392.111 51.098,390.411 49.301,388.224 47.106 C 386.036 44.910,384.157 43.114,384.047 43.114 C 383.937 43.114,385.637 44.910,387.824 47.106 M307.570 59.581 L 305.589 61.677 307.685 59.696 C 309.632 57.855,309.964 57.485,309.666 57.485 C 309.602 57.485,308.659 58.428,307.570 59.581 M363.273 59.207 C 363.273 59.275,363.857 59.859,364.571 60.504 L 365.868 61.677 364.696 60.379 C 363.603 59.170,363.273 58.898,363.273 59.207 M307.784 64.471 C 309.199 65.898,310.446 67.066,310.556 67.066 C 310.666 67.066,309.598 65.898,308.184 64.471 C 306.769 63.044,305.522 61.876,305.412 61.876 C 305.303 61.876,306.370 63.044,307.784 64.471 M363.906 63.290 C 363.046 64.049,362.429 64.757,362.534 64.863 C 362.640 64.969,363.425 64.340,364.279 63.466 C 366.181 61.518,366.006 61.435,363.906 63.290 M283.433 180.639 C 222.944 241.128,173.633 290.589,173.853 290.553 C 174.269 290.484,393.960 70.659,393.612 70.659 C 393.502 70.659,343.922 120.150,283.433 180.639 M324.748 81.337 C 333.937 90.618,336.494 93.101,334.982 91.281 C 334.738 90.986,334.626 90.627,334.734 90.482 C 334.842 90.338,334.804 90.316,334.649 90.434 C 334.494 90.552,329.868 86.196,324.369 80.754 L 314.371 70.858 324.748 81.337 M350.100 77.119 C 347.136 80.165,344.627 82.787,344.525 82.945 C 344.423 83.104,346.983 80.631,350.214 77.450 C 353.444 74.269,356.088 71.620,356.088 71.562 C 356.088 71.096,354.775 72.314,350.100 77.119 M285.205 81.942 L 283.633 83.633 285.260 82.122 L 286.887 80.612 292.745 86.326 C 295.967 89.469,298.603 91.942,298.603 91.823 C 298.603 91.589,288.971 82.051,287.600 80.927 C 286.807 80.276,286.719 80.314,285.205 81.942 M337.325 89.933 C 336.996 90.200,336.464 90.778,336.143 91.218 C 335.822 91.657,336.136 91.488,336.842 90.843 C 337.991 89.792,338.324 89.396,338.024 89.434 C 337.969 89.441,337.655 89.665,337.325 89.933 M307.696 101.316 C 312.587 106.081,316.584 110.126,316.578 110.303 C 316.572 110.481,280.805 146.381,237.096 190.081 C 193.387 233.780,157.692 269.602,157.774 269.683 C 157.990 269.900,316.963 110.812,316.981 110.360 C 316.997 109.979,299.377 92.611,299.002 92.637 C 298.892 92.645,302.804 96.550,307.696 101.316 M377.443 202.797 C 377.044 203.237,376.794 203.674,376.887 203.766 C 376.979 203.859,377.444 203.498,377.918 202.965 C 378.393 202.432,378.644 201.996,378.475 201.996 C 378.306 201.996,377.842 202.356,377.443 202.797 M374.247 276.647 C 374.247 313.204,374.294 328.159,374.351 309.880 C 374.409 291.602,374.409 261.692,374.351 243.413 C 374.294 225.135,374.247 240.090,374.247 276.647 M117.640 282.708 C 115.705 283.372,114.191 283.985,114.276 284.070 C 114.485 284.278,120.660 282.222,121.138 281.784 C 121.633 281.330,121.714 281.309,117.640 282.708 M154.691 297.804 C 152.275 298.648,150.479 299.353,150.698 299.370 C 151.306 299.418,158.631 296.955,159.062 296.557 C 159.566 296.092,159.704 296.053,154.691 297.804 M82.082 313.484 C 82.218 313.874,82.713 314.390,83.181 314.631 C 83.909 315.005,83.948 314.989,83.451 314.520 C 83.132 314.219,82.638 313.703,82.353 313.373 C 81.901 312.852,81.866 312.866,82.082 313.484 M385.067 380.639 C 384.707 381.188,384.568 381.637,384.757 381.637 C 384.946 381.637,385.306 381.188,385.556 380.639 C 385.806 380.090,385.946 379.641,385.866 379.641 C 385.786 379.641,385.426 380.090,385.067 380.639 M17.565 384.051 C 18.950 384.991,19.738 385.265,18.762 384.467 C 18.214 384.018,17.585 383.649,17.365 383.648 C 17.146 383.646,17.236 383.828,17.565 384.051 M374.931 389.393 C 373.077 390.704,372.816 391.079,374.382 390.182 C 375.112 389.763,375.898 389.197,376.127 388.922 C 376.717 388.217,376.441 388.326,374.931 389.393 " stroke="none" fill="#7c7c7c" fill-rule="evenodd"></path></g></svg>