<svg id="svg" version="1.1" xmlns="http://www.w3.org/2000/svg" xmlns:xlink="http://www.w3.org/1999/xlink" width="400" height="400.81632653061223" viewBox="0, 0, 400,400.81632653061223"><g id="svgg"><path id="path0" d="M18.658 1.034 C 10.575 2.990,3.596 9.907,0.935 18.600 C -0.226 22.392,-0.212 377.859,0.949 382.200 C 3.263 390.852,10.896 398.150,19.520 399.956 C 22.541 400.589,377.459 400.589,380.480 399.956 C 388.967 398.179,396.362 391.207,399.105 382.397 C 399.745 380.343,399.794 370.661,399.866 233.400 L 399.942 86.600 392.806 79.800 C 382.091 69.590,367.792 55.833,360.600 48.815 C 357.080 45.380,352.040 40.505,349.400 37.981 C 342.009 30.917,323.293 12.875,316.536 6.300 L 310.472 0.400 165.736 0.433 C 42.282 0.462,20.656 0.550,18.658 1.034 M46.856 21.600 L 63.200 21.600 63.200 105.600 L 63.200 189.600 179.000 189.600 L 294.800 189.600 294.800 105.600 L 294.800 21.600 298.600 21.540 C 300.690 21.507,302.568 21.462,302.772 21.440 C 303.105 21.404,310.070 27.903,336.592 53.000 C 341.010 57.180,350.559 66.179,357.812 72.998 C 365.065 79.817,372.845 87.186,375.100 89.374 L 379.200 93.352 379.200 233.197 L 379.200 373.043 378.187 375.076 C 377.554 376.347,376.554 377.539,375.521 378.255 L 373.868 379.400 200.834 379.508 C 43.980 379.606,27.643 379.557,26.125 378.985 C 24.066 378.208,21.796 375.772,21.229 373.728 C 20.631 371.575,20.631 29.225,21.229 27.072 C 22.162 23.710,25.707 21.036,28.756 21.394 C 29.722 21.507,37.867 21.600,46.856 21.600 M274.000 95.100 L 274.000 168.800 179.000 168.800 L 84.000 168.800 84.000 95.100 L 84.000 21.400 179.000 21.400 L 274.000 21.400 274.000 95.100 M231.600 84.600 L 231.600 136.800 242.000 136.800 L 252.400 136.800 252.400 84.600 L 252.400 32.400 242.000 32.400 L 231.600 32.400 231.600 84.600 M70.000 253.200 C 70.000 253.420,69.672 253.600,69.272 253.600 C 67.909 253.600,65.297 256.317,63.976 259.111 C 61.771 263.771,62.941 268.922,66.941 272.159 L 68.474 273.400 183.137 273.510 C 246.202 273.570,298.210 273.521,298.710 273.400 C 300.029 273.081,302.720 270.515,303.717 268.627 C 304.575 267.000,305.124 260.000,304.392 260.000 C 304.230 260.000,303.855 259.416,303.560 258.703 C 302.791 256.847,300.528 254.480,298.657 253.577 C 296.815 252.687,70.000 252.313,70.000 253.200 M68.737 295.821 C 61.192 299.613,61.106 311.772,68.600 315.242 C 70.145 315.957,74.092 315.983,184.240 315.991 L 298.280 316.000 299.929 314.892 C 304.624 311.739,306.104 305.737,303.469 300.537 C 302.360 298.348,299.512 295.600,298.352 295.600 C 297.964 295.600,297.536 295.420,297.400 295.200 C 297.236 294.935,259.008 294.814,183.876 294.842 L 70.600 294.885 68.737 295.821 M69.792 337.570 C 61.948 339.462,60.599 352.319,67.757 356.961 L 69.366 358.004 184.246 357.902 L 299.126 357.800 300.663 356.569 C 303.248 354.498,306.611 345.600,304.809 345.600 C 304.687 345.600,304.282 344.745,303.908 343.700 C 303.097 341.431,301.206 339.045,299.464 338.092 C 298.129 337.361,72.779 336.849,69.792 337.570 " stroke="none" fill="#040404" fill-rule="evenodd"></path><path id="path1" d="M94.900 0.300 C 134.445 0.356,199.155 0.356,238.700 0.300 C 278.245 0.244,245.890 0.198,166.800 0.198 C 87.710 0.198,55.355 0.244,94.900 0.300 M311.200 0.925 C 311.200 0.994,311.785 1.579,312.500 2.225 L 313.800 3.400 312.625 2.100 C 311.530 0.888,311.200 0.616,311.200 0.925 M325.000 14.400 C 325.859 15.280,326.652 16.000,326.762 16.000 C 326.872 16.000,326.259 15.280,325.400 14.400 C 324.541 13.520,323.748 12.800,323.638 12.800 C 323.528 12.800,324.141 13.520,325.000 14.400 M84.596 95.000 C 84.596 135.480,84.643 152.099,84.700 131.932 C 84.757 111.764,84.757 78.644,84.700 58.332 C 84.643 38.019,84.596 54.520,84.596 95.000 M273.396 95.000 C 273.396 135.480,273.443 152.099,273.500 131.932 C 273.557 111.764,273.557 78.644,273.500 58.332 C 273.443 38.019,273.396 54.520,273.396 95.000 M333.600 22.525 C 333.600 22.594,334.185 23.179,334.900 23.825 L 336.200 25.000 335.025 23.700 C 333.930 22.488,333.600 22.216,333.600 22.525 M21.398 200.400 C 21.398 294.670,21.444 333.235,21.500 286.100 C 21.556 238.965,21.556 161.835,21.500 114.700 C 21.444 67.565,21.398 106.130,21.398 200.400 M341.364 29.941 C 341.507 30.173,342.204 30.765,342.912 31.257 L 344.200 32.151 343.404 31.239 C 342.538 30.244,340.912 29.211,341.364 29.941 M236.700 31.899 C 239.615 31.967,244.385 31.967,247.300 31.899 C 250.215 31.831,247.830 31.775,242.000 31.775 C 236.170 31.775,233.785 31.831,236.700 31.899 M313.600 32.146 C 313.600 32.256,314.140 32.730,314.800 33.200 C 315.460 33.670,316.000 33.964,316.000 33.854 C 316.000 33.744,315.460 33.270,314.800 32.800 C 314.140 32.330,313.600 32.036,313.600 32.146 M347.200 35.800 C 347.946 36.570,348.647 37.200,348.757 37.200 C 348.867 37.200,348.346 36.570,347.600 35.800 C 346.854 35.030,346.153 34.400,346.043 34.400 C 345.933 34.400,346.454 35.030,347.200 35.800 M356.783 44.900 C 358.441 46.666,358.800 46.984,358.800 46.683 C 358.800 46.619,357.945 45.764,356.900 44.783 L 355.000 43.000 356.783 44.900 M363.344 51.109 C 363.660 51.621,366.000 53.353,366.000 53.075 C 366.000 52.976,365.339 52.391,364.532 51.775 C 363.724 51.159,363.189 50.859,363.344 51.109 M335.374 52.758 C 335.523 52.999,336.016 53.395,336.471 53.638 C 337.062 53.954,337.220 53.956,337.026 53.642 C 336.877 53.401,336.384 53.005,335.929 52.762 C 335.338 52.446,335.180 52.444,335.374 52.758 M368.000 55.725 C 368.000 55.794,368.585 56.379,369.300 57.025 L 370.600 58.200 369.425 56.900 C 368.330 55.688,368.000 55.416,368.000 55.725 M342.394 59.003 C 343.987 60.921,344.121 61.045,343.686 60.196 C 343.459 59.753,342.852 59.034,342.337 58.598 C 341.433 57.834,341.435 57.848,342.394 59.003 M379.600 67.000 C 380.346 67.770,381.047 68.400,381.157 68.400 C 381.267 68.400,380.746 67.770,380.000 67.000 C 379.254 66.230,378.553 65.600,378.443 65.600 C 378.333 65.600,378.854 66.230,379.600 67.000 M385.800 72.766 C 386.578 73.661,388.800 75.398,388.800 75.112 C 388.800 75.034,387.945 74.267,386.900 73.408 C 385.855 72.549,385.360 72.260,385.800 72.766 M390.000 76.925 C 390.000 76.994,390.585 77.579,391.300 78.225 L 392.600 79.400 391.425 78.100 C 390.330 76.888,390.000 76.616,390.000 76.925 M364.063 79.600 C 364.551 80.260,365.130 80.800,365.350 80.800 C 365.570 80.800,365.232 80.260,364.600 79.600 C 363.968 78.940,363.389 78.400,363.313 78.400 C 363.238 78.400,363.575 78.940,364.063 79.600 M371.200 86.546 C 371.200 86.656,371.740 87.130,372.400 87.600 C 373.060 88.070,373.600 88.364,373.600 88.254 C 373.600 88.144,373.060 87.670,372.400 87.200 C 371.740 86.730,371.200 86.436,371.200 86.546 M378.701 232.700 C 378.646 309.205,378.735 371.971,378.900 372.180 C 379.065 372.389,379.200 309.794,379.200 233.080 C 379.200 156.366,379.111 93.600,379.001 93.600 C 378.892 93.600,378.757 156.195,378.701 232.700 M304.970 305.749 C 304.986 306.503,305.135 307.038,305.300 306.937 C 305.694 306.695,305.673 305.535,305.263 304.889 C 305.064 304.574,304.951 304.904,304.970 305.749 M300.669 338.288 C 300.402 338.721,301.963 340.171,302.316 339.818 C 302.448 339.686,302.182 339.205,301.726 338.749 C 301.270 338.292,300.794 338.085,300.669 338.288 M304.963 347.709 C 304.990 349.130,305.088 349.420,305.345 348.844 C 305.545 348.397,305.529 347.593,305.308 346.936 C 304.964 345.914,304.929 345.991,304.963 347.709 M127.332 358.300 C 158.535 358.357,209.475 358.357,240.532 358.300 C 271.590 358.243,246.060 358.197,183.800 358.197 C 121.540 358.197,96.130 358.243,127.332 358.300 " stroke="none" fill="#7c7c7c" fill-rule="evenodd"></path><path id="path2" d="M310.433 0.105 C 310.525 0.163,312.580 2.094,315.000 4.397 L 319.400 8.583 315.207 4.292 C 312.901 1.931,310.846 -0.000,310.640 -0.000 C 310.435 -0.000,310.342 0.047,310.433 0.105 M14.000 2.200 C 13.450 2.514,13.180 2.772,13.400 2.772 C 13.620 2.772,14.250 2.514,14.800 2.200 C 15.350 1.886,15.620 1.628,15.400 1.628 C 15.180 1.628,14.550 1.886,14.000 2.200 M10.678 3.991 C 9.645 4.646,8.800 5.285,8.800 5.411 C 8.800 5.537,9.025 5.493,9.300 5.313 C 9.575 5.134,10.475 4.567,11.300 4.054 C 12.609 3.240,13.092 2.800,12.678 2.800 C 12.611 2.800,11.711 3.336,10.678 3.991 M6.604 7.196 C 5.974 7.854,5.548 8.481,5.657 8.590 C 5.766 8.699,6.463 8.161,7.206 7.394 C 7.949 6.627,8.375 6.000,8.153 6.000 C 7.931 6.000,7.234 6.538,6.604 7.196 M321.667 10.743 C 321.871 11.269,330.667 19.600,331.017 19.600 C 331.187 19.600,329.281 17.530,326.783 15.000 C 322.743 10.909,321.247 9.665,321.667 10.743 M2.665 12.752 C 2.079 13.828,1.603 14.864,1.607 15.054 C 1.611 15.244,2.152 14.425,2.808 13.234 C 3.465 12.043,3.941 11.007,3.866 10.932 C 3.791 10.857,3.250 11.676,2.665 12.752 M27.800 21.600 C 27.664 21.820,27.923 22.000,28.376 22.000 C 28.829 22.000,29.200 21.820,29.200 21.600 C 29.200 21.380,28.941 21.200,28.624 21.200 C 28.307 21.200,27.936 21.380,27.800 21.600 M302.400 21.433 C 302.400 21.653,303.210 22.628,304.200 23.600 C 305.190 24.572,306.000 25.187,306.000 24.967 C 306.000 24.747,305.190 23.772,304.200 22.800 C 303.210 21.828,302.400 21.213,302.400 21.433 M333.200 21.675 C 333.200 22.016,340.764 29.351,341.525 29.748 C 342.015 30.004,341.981 29.889,341.400 29.331 C 334.932 23.107,333.200 21.490,333.200 21.675 M24.300 23.053 C 23.475 23.580,22.800 24.202,22.800 24.434 C 22.800 24.667,22.530 25.127,22.200 25.457 C 21.524 26.133,21.412 26.800,21.973 26.800 C 22.178 26.800,22.456 26.454,22.590 26.031 C 22.724 25.608,23.562 24.604,24.453 23.800 C 26.400 22.041,26.340 21.749,24.300 23.053 M310.189 29.127 C 311.723 30.707,313.146 32.000,313.351 32.000 C 313.885 32.000,312.568 30.621,309.800 28.283 L 307.400 26.255 310.189 29.127 M344.000 32.328 C 344.000 32.508,344.495 33.070,345.100 33.576 C 345.705 34.082,347.903 36.140,349.984 38.148 C 354.577 42.581,353.663 41.263,348.424 35.900 C 344.833 32.223,344.000 31.551,344.000 32.328 M317.000 35.567 C 318.320 36.937,319.760 38.246,320.200 38.476 C 321.247 39.024,317.357 34.984,315.800 33.906 C 315.118 33.435,315.637 34.152,317.000 35.567 M322.326 40.200 C 322.870 41.245,327.520 45.813,327.778 45.555 C 327.887 45.446,326.612 44.016,324.943 42.378 C 323.275 40.740,322.097 39.760,322.326 40.200 M358.600 46.354 C 361.619 49.471,365.297 52.731,364.694 51.753 C 364.543 51.507,362.389 49.448,359.909 47.177 C 355.413 43.060,355.409 43.058,358.600 46.354 M331.789 49.529 C 333.323 51.108,334.752 52.400,334.964 52.400 C 335.484 52.400,333.453 50.295,331.000 48.292 C 329.245 46.859,329.341 47.010,331.789 49.529 M337.000 54.387 C 337.440 54.883,338.880 56.203,340.200 57.318 L 342.600 59.347 340.200 56.844 C 338.880 55.468,337.440 54.149,337.000 53.913 L 336.200 53.484 337.000 54.387 M366.867 54.300 C 366.940 54.465,369.070 56.576,371.600 58.992 C 374.130 61.407,375.482 62.577,374.605 61.592 C 370.053 56.478,366.236 52.880,366.867 54.300 M343.926 60.600 C 344.470 61.645,349.120 66.213,349.378 65.955 C 349.487 65.846,348.212 64.416,346.543 62.778 C 344.875 61.140,343.697 60.160,343.926 60.600 M380.600 67.563 C 381.920 68.938,384.080 70.981,385.400 72.103 C 387.653 74.019,387.604 73.942,384.600 70.842 C 382.840 69.027,380.680 66.984,379.800 66.302 C 378.524 65.314,378.686 65.569,380.600 67.563 M353.389 69.933 C 354.923 71.510,356.355 72.800,356.570 72.800 C 357.084 72.800,354.241 69.872,352.200 68.299 C 351.116 67.464,351.500 67.991,353.389 69.933 M357.600 73.710 C 357.600 73.785,359.085 75.172,360.900 76.791 L 364.200 79.735 361.600 77.039 C 359.351 74.707,357.600 73.249,357.600 73.710 M389.267 75.900 C 389.340 76.065,391.551 78.270,394.179 80.800 L 398.958 85.400 394.425 80.500 C 390.552 76.315,388.728 74.687,389.267 75.900 M367.800 83.600 C 369.328 85.140,370.759 86.400,370.979 86.400 C 371.199 86.400,370.128 85.140,368.600 83.600 C 367.072 82.060,365.641 80.800,365.421 80.800 C 365.201 80.800,366.272 82.060,367.800 83.600 M374.989 90.339 C 376.523 91.913,377.957 93.200,378.174 93.200 C 378.685 93.200,374.968 89.391,373.400 88.307 C 372.740 87.851,373.455 88.766,374.989 90.339 M378.598 232.400 C 378.598 308.850,378.644 340.125,378.700 301.900 C 378.756 263.675,378.756 201.125,378.700 162.900 C 378.644 124.675,378.598 155.950,378.598 232.400 M67.776 253.387 C 67.349 253.710,67.191 253.980,67.424 253.987 C 67.656 253.994,68.196 253.736,68.624 253.413 C 69.051 253.090,69.209 252.820,68.976 252.813 C 68.744 252.806,68.204 253.064,67.776 253.387 M299.600 253.600 C 299.600 253.820,299.796 254.000,300.036 254.000 C 300.276 254.000,300.800 254.405,301.201 254.900 C 301.603 255.395,302.082 255.649,302.266 255.464 C 302.450 255.279,302.060 254.695,301.400 254.166 C 300.106 253.128,299.600 252.969,299.600 253.600 M65.040 255.864 C 64.259 256.929,63.626 257.980,63.633 258.200 C 63.641 258.420,63.861 258.257,64.124 257.838 C 64.386 257.419,65.119 256.468,65.753 255.725 C 66.388 254.981,66.806 254.273,66.684 254.150 C 66.561 254.028,65.821 254.799,65.040 255.864 M302.800 256.600 C 302.800 256.930,303.010 257.200,303.267 257.200 C 303.523 257.200,303.622 257.311,303.486 257.448 C 303.350 257.584,303.501 257.958,303.823 258.280 C 304.144 258.601,304.305 259.030,304.180 259.232 C 304.055 259.435,304.143 259.600,304.376 259.600 C 304.957 259.600,304.920 259.403,303.992 257.584 C 303.133 255.901,302.800 255.626,302.800 256.600 M304.806 261.900 C 304.824 262.777,305.588 263.359,305.594 262.500 C 305.597 262.005,305.420 261.600,305.200 261.600 C 304.980 261.600,304.803 261.735,304.806 261.900 M63.201 268.233 C 63.204 268.726,64.726 271.200,65.027 271.200 C 65.158 271.200,64.859 270.525,64.363 269.700 C 63.243 267.837,63.200 267.783,63.201 268.233 M303.780 268.900 C 303.629 269.395,303.228 270.116,302.888 270.502 C 302.549 270.889,302.374 271.308,302.500 271.434 C 302.735 271.668,304.800 268.860,304.800 268.307 C 304.800 267.618,304.035 268.063,303.780 268.900 M67.144 273.176 C 67.664 273.629,68.279 274.000,68.511 274.000 C 69.003 274.000,68.979 273.980,67.400 273.055 L 66.200 272.353 67.144 273.176 M300.224 273.013 C 299.796 273.336,299.627 273.600,299.847 273.600 C 300.067 273.600,300.596 273.336,301.024 273.013 C 301.451 272.690,301.620 272.425,301.400 272.425 C 301.180 272.425,300.651 272.690,300.224 273.013 M126.732 274.300 C 158.265 274.356,209.745 274.356,241.132 274.300 C 272.520 274.243,246.720 274.197,183.800 274.197 C 120.880 274.197,95.200 274.243,126.732 274.300 M67.107 295.805 C 65.775 296.710,63.598 299.710,63.601 300.635 C 63.602 300.836,63.981 300.370,64.442 299.600 C 65.500 297.835,67.211 296.000,67.798 296.000 C 68.045 296.000,68.596 295.736,69.024 295.413 C 70.417 294.359,68.725 294.705,67.107 295.805 M299.596 295.796 C 299.868 296.123,300.253 296.291,300.452 296.168 C 300.962 295.852,300.474 295.200,299.727 295.200 C 299.219 295.200,299.194 295.311,299.596 295.796 M301.275 296.825 C 301.371 297.114,301.686 297.429,301.975 297.525 C 302.275 297.625,302.425 297.475,302.325 297.175 C 302.229 296.886,301.914 296.571,301.625 296.475 C 301.325 296.375,301.175 296.525,301.275 296.825 M302.400 298.413 C 302.400 298.639,302.669 298.928,302.998 299.054 C 303.326 299.181,303.496 299.445,303.374 299.642 C 303.252 299.839,303.354 300.000,303.600 300.000 C 303.846 300.000,303.936 300.180,303.800 300.400 C 303.664 300.620,303.743 300.800,303.976 300.800 C 304.538 300.800,304.513 300.578,303.790 299.180 C 303.194 298.028,302.400 297.589,302.400 298.413 M304.806 303.900 C 304.824 304.777,305.588 305.359,305.594 304.500 C 305.597 304.005,305.420 303.600,305.200 303.600 C 304.980 303.600,304.803 303.735,304.806 303.900 M63.216 310.231 C 63.193 310.848,65.655 314.479,65.917 314.216 C 66.038 314.095,65.768 313.593,65.317 313.098 C 64.866 312.604,64.213 311.660,63.865 311.000 C 63.517 310.340,63.225 309.994,63.216 310.231 M304.000 310.367 C 304.000 310.569,303.895 311.064,303.767 311.467 C 303.554 312.138,303.588 312.134,304.167 311.424 C 304.892 310.534,304.979 310.000,304.400 310.000 C 304.180 310.000,304.000 310.165,304.000 310.367 M126.300 316.300 C 157.815 316.356,209.385 316.356,240.900 316.300 C 272.415 316.243,246.630 316.197,183.600 316.197 C 120.570 316.197,94.785 316.243,126.300 316.300 M66.047 338.847 C 65.141 339.753,64.400 340.694,64.400 340.938 C 64.400 341.182,64.944 340.722,65.609 339.915 C 66.274 339.108,67.174 338.335,67.609 338.197 C 68.044 338.059,68.400 337.778,68.400 337.573 C 68.400 336.832,67.663 337.231,66.047 338.847 M302.261 339.902 C 302.065 340.219,303.350 342.000,303.774 342.000 C 303.910 342.000,303.741 341.460,303.400 340.800 C 302.751 339.545,302.570 339.402,302.261 339.902 M305.079 349.357 C 304.915 349.774,304.875 350.209,304.991 350.324 C 305.355 350.689,305.676 350.091,305.524 349.331 C 305.383 348.635,305.362 348.636,305.079 349.357 M303.587 353.421 C 303.104 354.203,302.810 354.943,302.933 355.066 C 303.158 355.291,304.796 352.862,304.799 352.300 C 304.801 351.701,304.448 352.028,303.587 353.421 M65.200 355.810 C 65.200 356.093,68.399 358.135,68.566 357.959 C 68.648 357.871,67.925 357.312,66.958 356.715 C 65.991 356.119,65.200 355.711,65.200 355.810 M377.667 374.166 C 377.395 374.917,376.443 376.191,375.551 376.997 C 374.659 377.803,374.060 378.583,374.219 378.731 C 374.379 378.879,374.590 378.775,374.688 378.500 C 374.786 378.225,375.090 378.000,375.364 378.000 C 376.295 378.000,378.800 374.516,378.800 373.220 C 378.800 372.315,378.135 372.870,377.667 374.166 M21.600 374.371 C 21.600 374.576,21.870 375.013,22.200 375.343 C 22.530 375.673,22.800 376.123,22.800 376.344 C 22.800 376.845,24.944 378.400,25.634 378.400 C 25.914 378.400,25.402 377.765,24.495 376.989 C 23.589 376.213,22.734 375.223,22.596 374.789 C 22.344 373.994,21.600 373.682,21.600 374.371 M28.000 379.200 C 28.000 379.466,85.600 379.600,200.000 379.600 C 314.400 379.600,372.000 379.466,372.000 379.200 C 372.000 378.934,314.400 378.800,200.000 378.800 C 85.600 378.800,28.000 378.934,28.000 379.200 M1.607 385.762 C 1.596 386.340,4.371 391.135,4.910 391.467 C 5.179 391.633,5.048 391.236,4.617 390.585 C 4.187 389.933,3.335 388.500,2.725 387.400 C 2.114 386.300,1.611 385.563,1.607 385.762 M397.822 386.330 C 397.684 386.765,396.852 388.263,395.973 389.660 C 395.094 391.057,394.823 391.667,395.370 391.015 C 396.606 389.543,398.550 386.017,398.276 385.743 C 398.164 385.631,397.960 385.895,397.822 386.330 M5.600 392.329 C 5.600 392.897,9.319 396.095,11.225 397.166 C 13.350 398.360,13.241 397.935,11.100 396.676 C 10.165 396.127,8.545 394.832,7.500 393.799 C 6.455 392.766,5.600 392.105,5.600 392.329 M392.675 393.646 C 392.056 394.281,391.710 394.800,391.905 394.800 C 392.344 394.800,394.201 392.863,393.968 392.647 C 393.876 392.562,393.294 393.011,392.675 393.646 M389.257 396.408 C 386.885 397.966,386.635 398.326,388.723 397.176 C 389.670 396.654,390.637 395.996,390.872 395.714 C 391.459 395.006,391.260 395.091,389.257 396.408 " stroke="none" fill="#b8b8b8" fill-rule="evenodd"></path><path id="path3" d="M336.000 24.925 C 336.000 24.994,336.585 25.579,337.300 26.225 L 338.600 27.400 337.425 26.100 C 336.330 24.888,336.000 24.616,336.000 24.925 M20.800 200.400 C 20.800 294.780,20.935 372.000,21.100 372.000 C 21.265 372.000,21.400 294.780,21.400 200.400 C 21.400 106.020,21.265 28.800,21.100 28.800 C 20.935 28.800,20.800 106.020,20.800 200.400 M358.800 46.925 C 358.800 46.994,359.385 47.579,360.100 48.225 L 361.400 49.400 360.225 48.100 C 359.130 46.888,358.800 46.616,358.800 46.925 M112.300 400.700 C 160.535 400.756,239.465 400.756,287.700 400.700 C 335.935 400.644,296.470 400.598,200.000 400.598 C 103.530 400.598,64.065 400.644,112.300 400.700 " stroke="none" fill="#747474" fill-rule="evenodd"></path><path id="path4" d="M318.592 8.301 C 322.370 12.192,322.715 12.494,321.907 11.200 C 321.632 10.760,321.260 10.400,321.080 10.400 C 320.900 10.400,320.882 10.175,321.041 9.900 C 321.199 9.625,321.174 9.540,320.986 9.712 C 320.798 9.883,319.374 8.803,317.822 7.313 C 315.944 5.509,316.202 5.840,318.592 8.301 M7.200 7.400 C 6.228 8.390,5.523 9.200,5.633 9.200 C 5.743 9.200,6.628 8.390,7.600 7.400 C 8.572 6.410,9.277 5.600,9.167 5.600 C 9.057 5.600,8.172 6.410,7.200 7.400 M330.383 19.700 C 331.364 20.745,332.219 21.600,332.283 21.600 C 332.584 21.600,332.266 21.241,330.500 19.583 L 328.600 17.800 330.383 19.700 M84.000 95.000 L 84.000 168.800 179.000 168.800 L 274.000 168.800 274.000 95.000 C 274.000 54.410,273.865 21.200,273.700 21.200 C 273.535 21.200,273.446 54.320,273.502 94.800 L 273.604 168.400 179.000 168.400 L 84.396 168.400 84.498 94.800 C 84.554 54.320,84.465 21.200,84.300 21.200 C 84.135 21.200,84.000 54.410,84.000 95.000 M302.800 21.325 C 302.800 21.394,303.385 21.979,304.100 22.625 L 305.400 23.800 304.225 22.500 C 303.130 21.288,302.800 21.016,302.800 21.325 M309.400 27.600 C 310.483 28.700,311.460 29.600,311.570 29.600 C 311.680 29.600,310.883 28.700,309.800 27.600 C 308.717 26.500,307.740 25.600,307.630 25.600 C 307.520 25.600,308.317 26.500,309.400 27.600 M341.391 30.311 C 343.145 32.120,344.632 33.600,344.694 33.600 C 345.071 33.600,343.459 31.850,341.020 29.611 L 338.200 27.022 341.391 30.311 M236.900 32.299 C 239.705 32.368,244.295 32.368,247.100 32.299 C 249.905 32.230,247.610 32.174,242.000 32.174 C 236.390 32.174,234.095 32.230,236.900 32.299 M231.394 84.600 C 231.394 113.420,231.442 125.151,231.500 110.669 C 231.558 96.187,231.558 72.607,231.500 58.269 C 231.442 43.931,231.394 55.780,231.394 84.600 M317.400 35.200 C 318.483 36.300,319.460 37.200,319.570 37.200 C 319.680 37.200,318.883 36.300,317.800 35.200 C 316.717 34.100,315.740 33.200,315.630 33.200 C 315.520 33.200,316.317 34.100,317.400 35.200 M351.583 40.100 C 352.564 41.145,353.419 42.000,353.483 42.000 C 353.784 42.000,353.466 41.641,351.700 39.983 L 349.800 38.200 351.583 40.100 M324.800 42.200 C 325.546 42.970,326.247 43.600,326.357 43.600 C 326.467 43.600,325.946 42.970,325.200 42.200 C 324.454 41.430,323.753 40.800,323.643 40.800 C 323.533 40.800,324.054 41.430,324.800 42.200 M330.600 47.600 C 331.683 48.700,332.660 49.600,332.770 49.600 C 332.880 49.600,332.083 48.700,331.000 47.600 C 329.917 46.500,328.940 45.600,328.830 45.600 C 328.720 45.600,329.517 46.500,330.600 47.600 M364.788 52.928 C 366.212 54.397,367.437 55.600,367.511 55.600 C 367.906 55.600,366.321 53.858,364.395 52.174 C 362.216 50.269,362.218 50.274,364.788 52.928 M338.800 55.400 C 339.995 56.610,341.063 57.600,341.173 57.600 C 341.283 57.600,340.395 56.610,339.200 55.400 C 338.005 54.190,336.937 53.200,336.827 53.200 C 336.717 53.200,337.605 54.190,338.800 55.400 M373.800 61.600 C 375.106 62.920,376.265 64.000,376.375 64.000 C 376.485 64.000,375.506 62.920,374.200 61.600 C 372.894 60.280,371.735 59.200,371.625 59.200 C 371.515 59.200,372.494 60.280,373.800 61.600 M345.600 61.800 C 346.346 62.570,347.047 63.200,347.157 63.200 C 347.267 63.200,346.746 62.570,346.000 61.800 C 345.254 61.030,344.553 60.400,344.443 60.400 C 344.333 60.400,344.854 61.030,345.600 61.800 M349.642 65.700 C 349.738 65.755,350.803 66.700,352.008 67.800 L 354.200 69.800 352.215 67.700 C 351.123 66.545,350.058 65.600,349.848 65.600 C 349.638 65.600,349.545 65.645,349.642 65.700 M386.788 74.113 C 388.212 75.591,389.421 76.800,389.476 76.800 C 389.901 76.800,388.700 75.447,386.648 73.613 L 384.200 71.425 386.788 74.113 M360.000 75.400 C 361.195 76.610,362.263 77.600,362.373 77.600 C 362.483 77.600,361.595 76.610,360.400 75.400 C 359.205 74.190,358.137 73.200,358.027 73.200 C 357.917 73.200,358.805 74.190,360.000 75.400 M366.800 81.800 C 367.546 82.570,368.247 83.200,368.357 83.200 C 368.467 83.200,367.946 82.570,367.200 81.800 C 366.454 81.030,365.753 80.400,365.643 80.400 C 365.533 80.400,366.054 81.030,366.800 81.800 M396.200 83.200 C 397.728 84.740,399.069 86.000,399.179 86.000 C 399.289 86.000,398.128 84.740,396.600 83.200 C 395.072 81.660,393.731 80.400,393.621 80.400 C 393.511 80.400,394.672 81.660,396.200 83.200 M371.241 85.900 C 371.263 86.065,372.208 87.003,373.341 87.985 L 375.400 89.771 373.415 87.685 C 371.386 85.554,371.170 85.376,371.241 85.900 M236.876 137.099 C 239.668 137.167,244.348 137.168,247.276 137.099 C 250.204 137.031,247.920 136.975,242.200 136.974 C 236.480 136.974,234.084 137.030,236.876 137.099 M120.868 189.900 C 152.695 189.956,204.895 189.956,236.868 189.900 C 268.840 189.844,242.800 189.797,179.000 189.797 C 115.200 189.797,89.040 189.844,120.868 189.900 M301.762 271.257 C 301.343 271.729,300.460 272.448,299.800 272.856 C 299.140 273.263,298.832 273.598,299.115 273.599 C 299.615 273.600,303.240 270.430,302.762 270.410 C 302.631 270.405,302.181 270.786,301.762 271.257 M68.938 273.694 C 69.192 273.856,120.970 273.947,184.000 273.896 C 247.030 273.846,283.930 273.759,266.000 273.703 C 180.703 273.435,68.524 273.430,68.938 273.694 M64.396 299.700 C 63.960 300.415,63.602 301.165,63.601 301.367 C 63.600 301.823,63.656 301.748,64.714 299.900 C 65.766 298.063,65.497 297.894,64.396 299.700 M63.800 310.800 C 64.141 311.460,64.511 312.000,64.621 312.000 C 64.731 312.000,64.541 311.460,64.200 310.800 C 63.859 310.140,63.489 309.600,63.379 309.600 C 63.269 309.600,63.459 310.140,63.800 310.800 M64.800 312.525 C 64.800 312.594,65.385 313.179,66.100 313.825 L 67.400 315.000 66.225 313.700 C 65.130 312.488,64.800 312.216,64.800 312.525 M70.000 337.100 C 70.000 337.265,121.300 337.400,184.000 337.400 C 246.700 337.400,298.000 337.265,298.000 337.100 C 298.000 336.935,246.700 336.800,184.000 336.800 C 121.300 336.800,70.000 336.935,70.000 337.100 M7.000 393.200 C 8.083 394.300,9.060 395.200,9.170 395.200 C 9.280 395.200,8.483 394.300,7.400 393.200 C 6.317 392.100,5.340 391.200,5.230 391.200 C 5.120 391.200,5.917 392.100,7.000 393.200 M392.585 393.300 L 390.600 395.400 392.700 393.415 C 394.651 391.571,394.983 391.200,394.685 391.200 C 394.622 391.200,393.677 392.145,392.585 393.300 " stroke="none" fill="#555555" fill-rule="evenodd"></path></g></svg>